<?xml version="1.0" encoding="utf-8"?>
<!-- Generator: Adobe Illustrator 16.0.0, SVG Export Plug-In . SVG Version: 6.00 Build 0)  -->
<!DOCTYPE svg PUBLIC "-//W3C//DTD SVG 1.1//EN" "http://www.w3.org/Graphics/SVG/1.1/DTD/svg11.dtd">
<svg version="1.1" id="Capa_1" xmlns="http://www.w3.org/2000/svg" xmlns:xlink="http://www.w3.org/1999/xlink" x="0px" y="0px"
	 width="120px" height="120px" viewBox="0 0 120 120" enable-background="new 0 0 120 120" xml:space="preserve">
<circle fill="#EDEDEC" cx="60.54" cy="60.125" r="58"/>
<g>
	<path fill="#CB6463" d="M59.959,55.468c0.779,0.779,0.779,2.042,0,2.821l-6.443,6.443c-0.779,0.779-2.042,0.779-2.821,0
		l-6.443-6.443c-0.779-0.779-0.779-2.042,0-2.821l6.443-6.443c0.779-0.779,2.042-0.779,2.821,0L59.959,55.468z"/>
	<path fill="#CB6463" d="M76.837,55.468c0.778,0.779,0.778,2.042,0,2.821l-6.444,6.443c-0.778,0.779-2.042,0.779-2.821,0
		l-6.443-6.443c-0.779-0.779-0.779-2.042,0-2.821l6.443-6.443c0.779-0.779,2.043-0.779,2.821,0L76.837,55.468z"/>
	
		<rect x="54.775" y="57.034" transform="matrix(-0.707 -0.7072 0.7072 -0.707 58.9821 153.6223)" fill="#CB6463" width="13.075" height="15.119"/>
</g>
</svg>
