<?xml version="1.0" encoding="utf-8"?>
<!-- Generator: Adobe Illustrator 16.0.0, SVG Export Plug-In . SVG Version: 6.00 Build 0)  -->
<!DOCTYPE svg PUBLIC "-//W3C//DTD SVG 1.1//EN" "http://www.w3.org/Graphics/SVG/1.1/DTD/svg11.dtd">
<svg version="1.1" id="Capa_1" xmlns="http://www.w3.org/2000/svg" xmlns:xlink="http://www.w3.org/1999/xlink" x="0px" y="0px"
	 width="120px" height="120px" viewBox="0 0 120 120" enable-background="new 0 0 120 120" xml:space="preserve">
<g>
	<circle fill="#CB6463" cx="60.113" cy="60" r="52.694"/>
	<g>
		<path fill="#FFFFFF" d="M59.585,55.769c0.708,0.708,0.708,1.855,0,2.563l-5.854,5.854c-0.708,0.709-1.855,0.709-2.563,0
			l-5.854-5.854c-0.707-0.708-0.707-1.855,0-2.563l5.854-5.853c0.708-0.708,1.855-0.708,2.563,0L59.585,55.769z"/>
		<path fill="#FFFFFF" d="M74.92,55.769c0.705,0.708,0.705,1.855,0,2.563l-5.856,5.854c-0.706,0.709-1.854,0.709-2.562,0
			l-5.854-5.854c-0.707-0.708-0.707-1.855,0-2.563l5.854-5.853c0.709-0.708,1.856-0.708,2.562,0L74.92,55.769z"/>
		
			<rect x="54.876" y="57.193" transform="matrix(0.7071 0.7071 -0.7071 0.7071 63.113 -24.2389)" fill="#FFFFFF" width="11.877" height="13.736"/>
	</g>
	<circle fill="none" stroke="#CB6463" stroke-width="2" stroke-miterlimit="10" cx="60.113" cy="60" r="59.053"/>
</g>
</svg>
